# xmcd
#
# Track frame offsets: 
#        150
#        14279
#        33771
#        46821
#        61260
#        85416
#        98271
#        112711
#        125830
#        142024
#        159748
#        181817
#        197346
#        212245
#
# Disc length: 3081 seconds
#
# Revision: 0
# Processed by: cddbd v1.5.2PL0 Copyright (c) Steve Scherf et al.
# Submitted via: ExactAudioCopy v0.95b4
#
DISCID=af0c070e
DTITLE=Big River Bluegrass - Big River Bluegrass
DYEAR=2009
DGENRE=Bluegrass
TTITLE0=Big River
TTITLE1=Bluegrass Country Home
TTITLE2=Honey Don't Call Me Baby
TTITLE3=Cryin' Out For You
TTITLE4=I Must Tell JESUS
TTITLE5=Have You Heard The Story
TTITLE6=Foghorn/Leghorn Blues
TTITLE7=Sidewalk Town
TTITLE8=Simple Things
TTITLE9=I Thought I Heard You Calling My Name
TTITLE10=Louisiana Legend
TTITLE11=Things Are Lookin' Up
TTITLE12=Start Over Again
TTITLE13=Wrinkled Dollar
EXTD=
EXTT0=
EXTT1=
EXTT2=
EXTT3=
EXTT4=
EXTT5=
EXTT6=
EXTT7=
EXTT8=
EXTT9=
EXTT10=
EXTT11=
EXTT12=
EXTT13=
PLAYORDER=
